<svg width="25" height="30" viewBox="0 0 25 30" fill="none" xmlns="http://www.w3.org/2000/svg">
<g clip-path="url(#clip0_1_789)">
<path d="M15.3411 17.615C15.1059 17.2571 14.8195 16.9468 14.5536 16.6366C13.8684 15.9207 13.0911 15.4076 12.4366 14.6559C10.9127 12.9139 10.5752 10.0383 11.5468 7.83093C10.5752 8.10536 9.72636 8.72582 9.00022 9.40593C6.35135 11.8878 5.30817 16.2667 6.5559 20.0253C6.59681 20.1446 6.63772 20.2639 6.63772 20.419C6.63772 20.6815 6.48431 20.9201 6.27976 21.0156C6.04453 21.1349 5.79908 21.0633 5.60476 20.8724C5.5434 20.8128 5.50249 20.7531 5.46158 20.6696C4.3059 18.9633 4.12181 16.5173 4.89908 14.5605C3.19112 16.1832 2.26044 18.9275 2.39339 21.5167C2.45476 22.1133 2.51612 22.7099 2.68999 23.3065C2.83317 24.0224 3.1093 24.7383 3.41612 25.3707C4.52067 27.4349 6.43317 28.9145 8.48885 29.2127C10.6775 29.5349 13.0195 29.0696 14.6968 27.3037C16.5684 25.323 17.223 22.1491 16.2616 19.4287L16.1286 19.1184C15.9139 18.5696 15.3411 17.615 15.3411 17.615ZM12.1093 25.1321C11.8229 25.4184 11.3525 25.7287 10.9843 25.848C9.83886 26.3253 8.6934 25.6571 8.0184 24.8696C9.23545 24.5355 9.96158 23.4855 10.1764 22.4235C10.3502 21.469 10.0229 20.6815 9.88999 19.7628C9.76726 18.8798 9.78772 18.1281 10.0639 17.3048C10.2582 17.7582 10.4627 18.2116 10.7082 18.5696C11.4957 19.7628 12.7332 20.2878 12.9991 21.9105C13.04 22.0775 13.0604 22.2446 13.0604 22.4235C13.0911 23.402 12.7229 24.4758 12.1093 25.1321Z" fill="#D15439"/>
</g>
<defs>
<clipPath id="clip0_1_789">
<rect x="0.335938" y="0.5" width="24.5455" height="28.6364" rx="4.09091" fill="white"/>
</clipPath>
</defs>
</svg>
